<?xml version="1.0" encoding="UTF-8"?>
<svg width="512px" height="512px" enable-background="new 0 0 53 53" version="1.1" viewBox="0 0 53 53" xml:space="preserve" xmlns="http://www.w3.org/2000/svg">
	<g fill="#fff">
		<path d="m2 13.5h49c1.104 0 2-0.896 2-2s-0.896-2-2-2h-49c-1.104 0-2 0.896-2 2s0.896 2 2 2z"/>
		<path d="m2 28.5h49c1.104 0 2-0.896 2-2s-0.896-2-2-2h-49c-1.104 0-2 0.896-2 2s0.896 2 2 2z"/>
		<path d="m2 43.5h49c1.104 0 2-0.896 2-2s-0.896-2-2-2h-49c-1.104 0-2 0.896-2 2s0.896 2 2 2z"/>
	</g>
</svg>
